<?xml version="1.0" encoding="utf-8"?>
<!-- Generator: Adobe Illustrator 26.2.1, SVG Export Plug-In . SVG Version: 6.00 Build 0)  -->
<svg version="1.1" xmlns="http://www.w3.org/2000/svg" xmlns:xlink="http://www.w3.org/1999/xlink" x="0px" y="0px"
	 viewBox="0 0 1440 600" style="enable-background:new 0 0 1440 600;" xml:space="preserve">
<style type="text/css">
	.st0{fill:url(#SVGID_1_);}
	.st1{fill:#FBB031;}
	.st2{opacity:0.25;fill:#FBB031;enable-background:new    ;}
	.st3{opacity:0.5;fill:#FBB031;enable-background:new    ;}
	.st4{fill:#8AD0C6;}
	.st5{fill:none;stroke:#414141;stroke-width:3;stroke-linecap:round;stroke-linejoin:round;stroke-miterlimit:10;}
	.st6{fill:#F0644B;}
	.st7{fill:none;stroke:#404041;stroke-width:3;stroke-linecap:round;stroke-linejoin:round;stroke-miterlimit:10;}
	.st8{fill:#EFC421;}
	.st9{fill:#FEF4EA;}
</style>
<g id="Layer_2">
	
		<radialGradient id="SVGID_1_" cx="721" cy="299.5" r="1101.5092" fx="1131.2247" fy="198.0377" gradientTransform="matrix(1.0014 0 0 1 -2.0028 0)" gradientUnits="userSpaceOnUse">
		<stop  offset="0" style="stop-color:#CCE0F4"/>
		<stop  offset="0.0995" style="stop-color:#C3DBF3;stop-opacity:0.9707"/>
		<stop  offset="0.2649" style="stop-color:#A9CDF2;stop-opacity:0.9221"/>
		<stop  offset="0.4743" style="stop-color:#80B6F0;stop-opacity:0.8605"/>
		<stop  offset="0.68" style="stop-color:#519CED;stop-opacity:0.8"/>
		<stop  offset="0.8" style="stop-color:#0277C0;stop-opacity:0.8"/>
		<stop  offset="0.8431" style="stop-color:#0075BE"/>
	</radialGradient>
	<rect class="st0" width="1440" height="599"/>
</g>
<g id="Layer_1">
	<path class="st1" d="M1440,599.89v-5.44c-179.92-51.6-376.91-63.51-571-35.71c-51.6,7.39-101.08,19.45-153.13,25.58
		c-70.8,8.34-134.98-11.83-198.67-34.22c-70.72-24.86-140.4-42.28-218.64-37.21C194.72,519.65,91.61,557.07,0,594.87v5.02H1440z"/>
	<path class="st2" d="M1440,599.89v-53.37c-57.35-25.59-124.31-37.09-189.6-32.28c-84.43,6.19-163.6,38.4-248.16,43.23
		c-88.61,5.03-177.05-19.46-261.84-40.65c-83.12-20.75-165.96-28.68-251.28-15.08c-43.38,6.92-83.82,20.57-125.34,33.82
		C252.61,571.07,104.4,616.37,0,539.4v60.49H1440z"/>
	<path class="st3" d="M1440,600v-17.25c-15.6-23.03-33.17-44.78-57.23-61.35c-62.06-42.79-140.77-42.49-212.27-21.31
		c-37.38,11.07-72.11,28.44-107.6,43.42c-49.1,20.73-101.68,50.18-157,54.19c-43.51,3.11-85.08-10.28-118.32-34.43
		c-38.12-27.7-74.78-67.64-124.36-79.64c-48.53-11.77-97.62,7.3-142.96,26.49c-45.34,19.19-90.19,42.55-140.3,46.96
		c-71.68,6.38-135.94-24.96-202.68-42.37c-36.24-9.45-70.8-6.73-104.51,8.18C45.86,534.77,15.18,552.27,0,576.61V600H1440z"/>
	<g>
		<g>
			<ellipse transform="matrix(0.9992 -0.0404 0.0404 0.9992 -14.07 20.8824)" cx="510.1" cy="358.87" rx="4.16" ry="4.16"/>
		</g>
		<g>
			
				<ellipse transform="matrix(0.9992 -0.0404 0.0404 0.9992 -14.07 20.8824)" class="st4" cx="510.1" cy="358.87" rx="4.16" ry="4.16"/>
			<path class="st4" d="M499.73,382.98c0.94,0.3,2.56-0.05,2.89-1.08c0,0,2.99-11.02,3.24-10.97l-5.65,18.95h5.34l0,14.25
				c0,1.26,0.94,2.3,2.09,2.3c1.15,0,2.09-1.03,2.46-2.3l0-14.25h0.03v14.25c0.28,1.26,1.22,2.3,2.36,2.3c1.15,0,2.09-1.03,2.09-2.3
				l0-14.25h5.31c0,0-1.35-4.53-1.44-4.83c-0.88-2.94-1.74-5.88-2.61-8.82c-0.52-1.77-1.05-3.53-1.6-5.29
				c0.09-0.02,2.17,6.9,3.27,10.34c0.78,2.44,5.22,1.71,4.41-0.87c0,0-4.21-13.27-4.21-13.27c-0.28-0.88-2.08-2.72-3.81-2.72h-7.59
				c-1.83,0-3.5,1.85-3.77,2.72l-4.21,13.27C497.96,381.44,498.79,382.68,499.73,382.98z"/>
		</g>
		<g>
			
				<ellipse transform="matrix(0.9992 -0.0404 0.0404 0.9992 -14.07 20.8824)" class="st5" cx="510.1" cy="358.87" rx="4.16" ry="4.16"/>
			<path class="st5" d="M499.73,382.98c0.94,0.3,2.56-0.05,2.89-1.08c0,0,2.99-11.02,3.24-10.97l-5.65,18.95h5.34l0,14.25
				c0,1.26,0.94,2.3,2.09,2.3c1.15,0,2.09-1.03,2.46-2.3l0-14.25h0.03v14.25c0.28,1.26,1.22,2.3,2.36,2.3c1.15,0,2.09-1.03,2.09-2.3
				l0-14.25h5.31c0,0-1.35-4.53-1.44-4.83c-0.88-2.94-1.74-5.88-2.61-8.82c-0.52-1.77-1.05-3.53-1.6-5.29
				c0.09-0.02,2.17,6.9,3.27,10.34c0.78,2.44,5.22,1.71,4.41-0.87c0,0-4.21-13.27-4.21-13.27c-0.28-0.88-2.08-2.72-3.81-2.72h-7.59
				c-1.83,0-3.5,1.85-3.77,2.72l-4.21,13.27C497.96,381.44,498.79,382.68,499.73,382.98z"/>
		</g>
	</g>
	<g>
		<g>
			<path d="M996.77,418.56c2.3,0,4.16-1.86,4.16-4.16c0-2.3-1.86-4.16-4.16-4.16c-2.3,0-4.16,1.86-4.16,4.16
				C992.61,416.69,994.48,418.56,996.77,418.56z"/>
		</g>
		<g>
			<path class="st6" d="M996.77,418.56c2.3,0,4.16-1.86,4.16-4.16c0-2.3-1.86-4.16-4.16-4.16c-2.3,0-4.16,1.86-4.16,4.16
				C992.61,416.69,994.48,418.56,996.77,418.56z"/>
			<path class="st6" d="M986.4,438.51c0.94,0.3,2.56-0.05,2.89-1.08c0,0,2.99-11.02,3.24-10.97l-5.65,18.95h5.34l0,14.25
				c0,1.26,0.94,2.3,2.09,2.3c1.15,0,2.09-1.03,2.46-2.3l0-14.25h0.03v14.25c0.28,1.26,1.22,2.3,2.36,2.3c1.15,0,2.09-1.03,2.09-2.3
				l0-14.25h5.31c0,0-1.35-4.53-1.44-4.83c-0.88-2.94-1.74-5.88-2.61-8.82c-0.52-1.77-1.05-3.53-1.6-5.29
				c0.09-0.02,2.17,6.9,3.27,10.34c0.78,2.44,5.22,1.71,4.41-0.87c0,0-4.21-13.27-4.21-13.27c-0.28-0.88-2.08-2.72-3.81-2.72h-7.59
				c-1.83,0-3.5,1.85-3.77,2.72l-4.21,13.27C984.64,436.96,985.46,438.21,986.4,438.51z"/>
		</g>
		<g>
			<path class="st5" d="M996.77,418.56c2.3,0,4.16-1.86,4.16-4.16c0-2.3-1.86-4.16-4.16-4.16c-2.3,0-4.16,1.86-4.16,4.16
				C992.61,416.69,994.48,418.56,996.77,418.56z"/>
			<path class="st5" d="M986.4,438.51c0.94,0.3,2.56-0.05,2.89-1.08c0,0,2.99-11.02,3.24-10.97l-5.65,18.95h5.34l0,14.25
				c0,1.26,0.94,2.3,2.09,2.3c1.15,0,2.09-1.03,2.46-2.3l0-14.25h0.03v14.25c0.28,1.26,1.22,2.3,2.36,2.3c1.15,0,2.09-1.03,2.09-2.3
				l0-14.25h5.31c0,0-1.35-4.53-1.44-4.83c-0.88-2.94-1.74-5.88-2.61-8.82c-0.52-1.77-1.05-3.53-1.6-5.29
				c0.09-0.02,2.17,6.9,3.27,10.34c0.78,2.44,5.22,1.71,4.41-0.87c0,0-4.21-13.27-4.21-13.27c-0.28-0.88-2.08-2.72-3.81-2.72h-7.59
				c-1.83,0-3.5,1.85-3.77,2.72l-4.21,13.27C984.64,436.96,985.46,438.21,986.4,438.51z"/>
		</g>
	</g>
	<g>
		<g>
			<g>
				
					<ellipse transform="matrix(0.3849 -0.923 0.923 0.3849 -284.5744 568.4023)" class="st4" cx="284.16" cy="497.71" rx="4.07" ry="4.07"/>
				<g>
					<path class="st4" d="M278.97,509.68h-0.02l0,11.65c0-0.03,0.01-0.06,0.01-0.1L278.97,509.68z"/>
					<path class="st4" d="M289.36,509.68v11.55c0,0.02,0.01,0.04,0.01,0.07L289.36,509.68L289.36,509.68z"/>
					<path class="st4" d="M284.26,523.44l0,18.94c0.37,1.44,1.43,2.62,2.74,2.62c1.3,0,2.37-1.17,2.37-2.62l0-18.94
						c0-0.03,0-0.06,0-0.08l-0.01-0.12h0.01v-1.94c0-0.02-0.01-0.04-0.01-0.07v-11.55h0.01v11.62c0.05,1.08,1.27,1.94,2.25,1.94
						c1,0,2.37-0.9,2.37-2.01v-11.47v-3.22c0-1.61-1.31-2.93-2.93-2.93h-13.84c-1.61,0-2.93,1.31-2.93,2.93v14.7
						c0,1.11,1.37,2.01,2.37,2.01c0.97,0,2.22-0.85,2.3-1.91l0-11.65h0.02l0,11.55c0,0.03-0.01,0.06-0.01,0.1l0,2.03
						c0,0.03,0,0.05,0,0.08v18.94c0,1.44,1.06,2.62,2.37,2.62c1.3,0,2.37-1.17,2.83-2.62l0-18.94H284.26z"/>
				</g>
			</g>
			<g>
				
					<ellipse transform="matrix(0.3849 -0.923 0.923 0.3849 -284.5744 568.4023)" class="st7" cx="284.16" cy="497.71" rx="4.07" ry="4.07"/>
				<g>
					<path class="st7" d="M278.97,509.68h-0.02l0,11.65c0-0.03,0.01-0.06,0.01-0.1L278.97,509.68z"/>
					<path class="st7" d="M289.36,509.68v11.55c0,0.02,0.01,0.04,0.01,0.07L289.36,509.68L289.36,509.68z"/>
					<path class="st7" d="M284.26,523.44l0,18.94c0.37,1.44,1.43,2.62,2.74,2.62c1.3,0,2.37-1.17,2.37-2.62l0-18.94
						c0-0.03,0-0.06,0-0.08l-0.01-0.12h0.01v-1.94c0-0.02-0.01-0.04-0.01-0.07v-11.55h0.01v11.62c0.05,1.08,1.27,1.94,2.25,1.94
						c1,0,2.37-0.9,2.37-2.01v-11.47v-3.22c0-1.61-1.31-2.93-2.93-2.93h-13.84c-1.61,0-2.93,1.31-2.93,2.93v14.7
						c0,1.11,1.37,2.01,2.37,2.01c0.97,0,2.22-0.85,2.3-1.91l0-11.65h0.02l0,11.55c0,0.03-0.01,0.06-0.01,0.1l0,2.03
						c0,0.03,0,0.05,0,0.08v18.94c0,1.44,1.06,2.62,2.37,2.62c1.3,0,2.37-1.17,2.83-2.62l0-18.94H284.26z"/>
				</g>
			</g>
		</g>
	</g>
	<g>
		<g>
			<g>
				<circle class="st8" cx="581.86" cy="405.12" r="4.07"/>
				<g>
					<path class="st8" d="M576.67,417.1h-0.02l0,11.65c0-0.03,0.01-0.06,0.01-0.1L576.67,417.1z"/>
					<path class="st8" d="M587.05,417.1v11.55c0,0.02,0.01,0.04,0.01,0.07L587.05,417.1L587.05,417.1z"/>
					<path class="st8" d="M581.96,430.86l0,18.94c0.37,1.44,1.43,2.62,2.74,2.62c1.3,0,2.37-1.17,2.37-2.62l0-18.94
						c0-0.03,0-0.06,0-0.08l-0.01-0.12h0.01v-1.94c0-0.02-0.01-0.04-0.01-0.07V417.1h0.01v11.62c0.05,1.08,1.27,1.94,2.25,1.94
						c1,0,2.37-0.9,2.37-2.01v-11.47v-3.22c0-1.61-1.31-2.93-2.93-2.93h-13.84c-1.61,0-2.93,1.31-2.93,2.93v14.7
						c0,1.11,1.37,2.01,2.37,2.01c0.97,0,2.22-0.85,2.3-1.91l0-11.65h0.02l0,11.55c0,0.03-0.01,0.06-0.01,0.1l0,2.03
						c0,0.03,0,0.05,0,0.08v18.94c0,1.44,1.06,2.62,2.37,2.62c1.3,0,2.37-1.17,2.83-2.62l0-18.94H581.96z"/>
				</g>
			</g>
			<g>
				<circle class="st5" cx="581.86" cy="405.12" r="4.07"/>
				<g>
					<path class="st5" d="M576.67,417.1h-0.02l0,11.65c0-0.03,0.01-0.06,0.01-0.1L576.67,417.1z"/>
					<path class="st5" d="M587.05,417.1v11.55c0,0.02,0.01,0.04,0.01,0.07L587.05,417.1L587.05,417.1z"/>
					<path class="st5" d="M581.96,430.86l0,18.94c0.37,1.44,1.43,2.62,2.74,2.62c1.3,0,2.37-1.17,2.37-2.62l0-18.94
						c0-0.03,0-0.06,0-0.08l-0.01-0.12h0.01v-1.94c0-0.02-0.01-0.04-0.01-0.07V417.1h0.01v11.62c0.05,1.08,1.27,1.94,2.25,1.94
						c1,0,2.37-0.9,2.37-2.01v-11.47v-3.22c0-1.61-1.31-2.93-2.93-2.93h-13.84c-1.61,0-2.93,1.31-2.93,2.93v14.7
						c0,1.11,1.37,2.01,2.37,2.01c0.97,0,2.22-0.85,2.3-1.91l0-11.65h0.02l0,11.55c0,0.03-0.01,0.06-0.01,0.1l0,2.03
						c0,0.03,0,0.05,0,0.08v18.94c0,1.44,1.06,2.62,2.37,2.62c1.3,0,2.37-1.17,2.83-2.62l0-18.94H581.96z"/>
				</g>
			</g>
		</g>
	</g>
	<g>
		<g>
			<g>
				
					<ellipse transform="matrix(0.9854 -0.1704 0.1704 0.9854 -78.3039 79.1435)" class="st9" cx="421.97" cy="495.8" rx="4.07" ry="4.07"/>
				<g>
					<path class="st9" d="M416.78,507.78h-0.02l0,11.65c0-0.03,0.01-0.06,0.01-0.1L416.78,507.78z"/>
					<path class="st9" d="M427.17,507.78v11.55c0,0.02,0.01,0.04,0.01,0.07L427.17,507.78L427.17,507.78z"/>
					<path class="st9" d="M422.07,521.54l0,18.94c0.37,1.44,1.43,2.62,2.74,2.62c1.3,0,2.37-1.17,2.37-2.62l0-18.94
						c0-0.03,0-0.06,0-0.08l-0.01-0.12h0.01v-1.94c0-0.02-0.01-0.04-0.01-0.07v-11.55h0.01v11.62c0.05,1.08,1.27,1.94,2.25,1.94
						c1,0,2.37-0.9,2.37-2.01v-11.47v-3.22c0-1.61-1.31-2.93-2.93-2.93h-13.84c-1.61,0-2.93,1.31-2.93,2.93v14.7
						c0,1.11,1.37,2.01,2.37,2.01c0.97,0,2.22-0.85,2.3-1.91l0-11.65h0.02l0,11.55c0,0.03-0.01,0.06-0.01,0.1l0,2.03
						c0,0.03,0,0.05,0,0.08v18.94c0,1.44,1.06,2.62,2.37,2.62c1.3,0,2.37-1.17,2.83-2.62l0-18.94H422.07z"/>
				</g>
			</g>
			<g>
				
					<ellipse transform="matrix(0.9854 -0.1704 0.1704 0.9854 -78.3039 79.1435)" class="st5" cx="421.97" cy="495.8" rx="4.07" ry="4.07"/>
				<g>
					<path class="st5" d="M416.78,507.78h-0.02l0,11.65c0-0.03,0.01-0.06,0.01-0.1L416.78,507.78z"/>
					<path class="st5" d="M427.17,507.78v11.55c0,0.02,0.01,0.04,0.01,0.07L427.17,507.78L427.17,507.78z"/>
					<path class="st5" d="M422.07,521.54l0,18.94c0.37,1.44,1.43,2.62,2.74,2.62c1.3,0,2.37-1.17,2.37-2.62l0-18.94
						c0-0.03,0-0.06,0-0.08l-0.01-0.12h0.01v-1.94c0-0.02-0.01-0.04-0.01-0.07v-11.55h0.01v11.62c0.05,1.08,1.27,1.94,2.25,1.94
						c1,0,2.37-0.9,2.37-2.01v-11.47v-3.22c0-1.61-1.31-2.93-2.93-2.93h-13.84c-1.61,0-2.93,1.31-2.93,2.93v14.7
						c0,1.11,1.37,2.01,2.37,2.01c0.97,0,2.22-0.85,2.3-1.91l0-11.65h0.02l0,11.55c0,0.03-0.01,0.06-0.01,0.1l0,2.03
						c0,0.03,0,0.05,0,0.08v18.94c0,1.44,1.06,2.62,2.37,2.62c1.3,0,2.37-1.17,2.83-2.62l0-18.94H422.07z"/>
				</g>
			</g>
		</g>
	</g>
	<g>
		<g>
			<ellipse transform="matrix(0.2189 -0.9758 0.9758 0.2189 -114.3482 676.1318)" cx="365.11" cy="409.48" rx="4.16" ry="4.16"/>
		</g>
		<g>
			
				<ellipse transform="matrix(0.2189 -0.9758 0.9758 0.2189 -114.3482 676.1318)" class="st9" cx="365.11" cy="409.48" rx="4.16" ry="4.16"/>
			<path class="st9" d="M354.75,433.6c0.94,0.3,2.56-0.05,2.89-1.08c0,0,2.99-11.02,3.24-10.97l-5.65,18.95h5.34l0,14.25
				c0,1.26,0.94,2.3,2.09,2.3c1.15,0,2.09-1.03,2.46-2.3l0-14.25h0.03v14.25c0.28,1.26,1.22,2.3,2.36,2.3c1.15,0,2.09-1.03,2.09-2.3
				l0-14.25h5.31c0,0-1.35-4.53-1.44-4.83c-0.88-2.94-1.74-5.88-2.61-8.82c-0.52-1.77-1.05-3.53-1.6-5.29
				c0.09-0.02,2.17,6.9,3.27,10.34c0.78,2.44,5.22,1.71,4.41-0.87c0,0-4.21-13.27-4.21-13.27c-0.28-0.88-2.08-2.72-3.81-2.72h-7.59
				c-1.83,0-3.5,1.85-3.77,2.72l-4.21,13.27C352.98,432.05,353.81,433.3,354.75,433.6z"/>
		</g>
		<g>
			
				<ellipse transform="matrix(0.2189 -0.9758 0.9758 0.2189 -114.3482 676.1318)" class="st5" cx="365.11" cy="409.48" rx="4.16" ry="4.16"/>
			<path class="st5" d="M354.75,433.6c0.94,0.3,2.56-0.05,2.89-1.08c0,0,2.99-11.02,3.24-10.97l-5.65,18.95h5.34l0,14.25
				c0,1.26,0.94,2.3,2.09,2.3c1.15,0,2.09-1.03,2.46-2.3l0-14.25h0.03v14.25c0.28,1.26,1.22,2.3,2.36,2.3c1.15,0,2.09-1.03,2.09-2.3
				l0-14.25h5.31c0,0-1.35-4.53-1.44-4.83c-0.88-2.94-1.74-5.88-2.61-8.82c-0.52-1.77-1.05-3.53-1.6-5.29
				c0.09-0.02,2.17,6.9,3.27,10.34c0.78,2.44,5.22,1.71,4.41-0.87c0,0-4.21-13.27-4.21-13.27c-0.28-0.88-2.08-2.72-3.81-2.72h-7.59
				c-1.83,0-3.5,1.85-3.77,2.72l-4.21,13.27C352.98,432.05,353.81,433.3,354.75,433.6z"/>
		</g>
	</g>
	<g>
		<g>
			<path d="M27.93,479.51c2.3,0,4.16-1.86,4.16-4.16c0-2.3-1.86-4.16-4.16-4.16c-2.3,0-4.16,1.86-4.16,4.16
				C23.76,477.65,25.63,479.51,27.93,479.51z"/>
		</g>
		<g>
			<path class="st8" d="M27.93,479.51c2.3,0,4.16-1.86,4.16-4.16c0-2.3-1.86-4.16-4.16-4.16c-2.3,0-4.16,1.86-4.16,4.16
				C23.76,477.65,25.63,479.51,27.93,479.51z"/>
			<path class="st8" d="M17.56,499.47c0.94,0.3,2.56-0.05,2.89-1.08c0,0,2.99-11.02,3.24-10.97l-5.65,18.95h5.34l0,14.25
				c0,1.26,0.94,2.3,2.09,2.3c1.15,0,2.09-1.03,2.46-2.3l0-14.25h0.03v14.25c0.28,1.26,1.22,2.3,2.36,2.3c1.15,0,2.09-1.03,2.09-2.3
				l0-14.25h5.31c0,0-1.35-4.53-1.44-4.83c-0.88-2.94-1.74-5.88-2.61-8.82c-0.52-1.77-1.05-3.53-1.6-5.29
				c0.09-0.02,2.17,6.9,3.27,10.34c0.78,2.44,5.22,1.71,4.41-0.87c0,0-4.21-13.27-4.21-13.27c-0.28-0.88-2.08-2.72-3.81-2.72h-7.59
				c-1.83,0-3.5,1.85-3.77,2.72l-4.21,13.27C15.79,497.92,16.62,499.17,17.56,499.47z"/>
		</g>
		<g>
			<path class="st5" d="M27.93,479.51c2.3,0,4.16-1.86,4.16-4.16c0-2.3-1.86-4.16-4.16-4.16c-2.3,0-4.16,1.86-4.16,4.16
				C23.76,477.65,25.63,479.51,27.93,479.51z"/>
			<path class="st5" d="M17.56,499.47c0.94,0.3,2.56-0.05,2.89-1.08c0,0,2.99-11.02,3.24-10.97l-5.65,18.95h5.34l0,14.25
				c0,1.26,0.94,2.3,2.09,2.3c1.15,0,2.09-1.03,2.46-2.3l0-14.25h0.03v14.25c0.28,1.26,1.22,2.3,2.36,2.3c1.15,0,2.09-1.03,2.09-2.3
				l0-14.25h5.31c0,0-1.35-4.53-1.44-4.83c-0.88-2.94-1.74-5.88-2.61-8.82c-0.52-1.77-1.05-3.53-1.6-5.29
				c0.09-0.02,2.17,6.9,3.27,10.34c0.78,2.44,5.22,1.71,4.41-0.87c0,0-4.21-13.27-4.21-13.27c-0.28-0.88-2.08-2.72-3.81-2.72h-7.59
				c-1.83,0-3.5,1.85-3.77,2.72l-4.21,13.27C15.79,497.92,16.62,499.17,17.56,499.47z"/>
		</g>
	</g>
	<g>
		<g>
			<path d="M834.74,379.5c2.3,0,4.16-1.86,4.16-4.16c0-2.3-1.86-4.16-4.16-4.16c-2.3,0-4.16,1.86-4.16,4.16
				C830.58,377.64,832.44,379.5,834.74,379.5z"/>
		</g>
		<g>
			<path class="st8" d="M834.74,379.5c2.3,0,4.16-1.86,4.16-4.16c0-2.3-1.86-4.16-4.16-4.16c-2.3,0-4.16,1.86-4.16,4.16
				C830.58,377.64,832.44,379.5,834.74,379.5z"/>
			<path class="st8" d="M824.37,399.45c0.94,0.3,2.56-0.05,2.89-1.08c0,0,2.99-11.02,3.24-10.97l-5.65,18.95h5.34l0,14.25
				c0,1.26,0.94,2.3,2.09,2.3s2.09-1.03,2.46-2.3l0-14.25h0.03v14.25c0.28,1.26,1.22,2.3,2.36,2.3c1.15,0,2.09-1.03,2.09-2.3
				l0-14.25h5.31c0,0-1.35-4.53-1.44-4.83c-0.88-2.94-1.74-5.88-2.61-8.82c-0.52-1.77-1.05-3.53-1.6-5.29
				c0.09-0.02,2.17,6.9,3.27,10.34c0.78,2.44,5.22,1.71,4.41-0.87c0,0-4.21-13.27-4.21-13.27c-0.28-0.88-2.08-2.72-3.81-2.72h-7.59
				c-1.83,0-3.5,1.85-3.77,2.72l-4.21,13.27C822.6,397.91,823.43,399.16,824.37,399.45z"/>
		</g>
		<g>
			<path class="st5" d="M834.74,379.5c2.3,0,4.16-1.86,4.16-4.16c0-2.3-1.86-4.16-4.16-4.16c-2.3,0-4.16,1.86-4.16,4.16
				C830.58,377.64,832.44,379.5,834.74,379.5z"/>
			<path class="st5" d="M824.37,399.45c0.94,0.3,2.56-0.05,2.89-1.08c0,0,2.99-11.02,3.24-10.97l-5.65,18.95h5.34l0,14.25
				c0,1.26,0.94,2.3,2.09,2.3s2.09-1.03,2.46-2.3l0-14.25h0.03v14.25c0.28,1.26,1.22,2.3,2.36,2.3c1.15,0,2.09-1.03,2.09-2.3
				l0-14.25h5.31c0,0-1.35-4.53-1.44-4.83c-0.88-2.94-1.74-5.88-2.61-8.82c-0.52-1.77-1.05-3.53-1.6-5.29
				c0.09-0.02,2.17,6.9,3.27,10.34c0.78,2.44,5.22,1.71,4.41-0.87c0,0-4.21-13.27-4.21-13.27c-0.28-0.88-2.08-2.72-3.81-2.72h-7.59
				c-1.83,0-3.5,1.85-3.77,2.72l-4.21,13.27C822.6,397.91,823.43,399.16,824.37,399.45z"/>
		</g>
	</g>
	<g>
		<g>
			<path d="M308.76,334.52c2.3,0,4.16-1.86,4.16-4.16c0-2.3-1.86-4.16-4.16-4.16c-2.3,0-4.16,1.86-4.16,4.16
				C304.6,332.66,306.47,334.52,308.76,334.52z"/>
		</g>
		<g>
			<path class="st8" d="M308.76,334.52c2.3,0,4.16-1.86,4.16-4.16c0-2.3-1.86-4.16-4.16-4.16c-2.3,0-4.16,1.86-4.16,4.16
				C304.6,332.66,306.47,334.52,308.76,334.52z"/>
			<path class="st8" d="M298.4,354.47c0.94,0.3,2.56-0.05,2.89-1.08c0,0,2.99-11.02,3.24-10.97l-5.65,18.95h5.34l0,14.25
				c0,1.26,0.94,2.3,2.09,2.3c1.15,0,2.09-1.03,2.46-2.3l0-14.25h0.03v14.25c0.28,1.26,1.22,2.3,2.36,2.3c1.15,0,2.09-1.03,2.09-2.3
				l0-14.25h5.31c0,0-1.35-4.53-1.44-4.83c-0.88-2.94-1.74-5.88-2.61-8.82c-0.52-1.77-1.05-3.53-1.6-5.29
				c0.09-0.02,2.17,6.9,3.27,10.34c0.78,2.44,5.22,1.71,4.41-0.87c0,0-4.21-13.27-4.21-13.27c-0.28-0.88-2.08-2.72-3.81-2.72h-7.59
				c-1.83,0-3.5,1.85-3.77,2.72l-4.21,13.27C296.63,352.93,297.46,354.17,298.4,354.47z"/>
		</g>
		<g>
			<path class="st5" d="M308.76,334.52c2.3,0,4.16-1.86,4.16-4.16c0-2.3-1.86-4.16-4.16-4.16c-2.3,0-4.16,1.86-4.16,4.16
				C304.6,332.66,306.47,334.52,308.76,334.52z"/>
			<path class="st5" d="M298.4,354.47c0.94,0.3,2.56-0.05,2.89-1.08c0,0,2.99-11.02,3.24-10.97l-5.65,18.95h5.34l0,14.25
				c0,1.26,0.94,2.3,2.09,2.3c1.15,0,2.09-1.03,2.46-2.3l0-14.25h0.03v14.25c0.28,1.26,1.22,2.3,2.36,2.3c1.15,0,2.09-1.03,2.09-2.3
				l0-14.25h5.31c0,0-1.35-4.53-1.44-4.83c-0.88-2.94-1.74-5.88-2.61-8.82c-0.52-1.77-1.05-3.53-1.6-5.29
				c0.09-0.02,2.17,6.9,3.27,10.34c0.78,2.44,5.22,1.71,4.41-0.87c0,0-4.21-13.27-4.21-13.27c-0.28-0.88-2.08-2.72-3.81-2.72h-7.59
				c-1.83,0-3.5,1.85-3.77,2.72l-4.21,13.27C296.63,352.93,297.46,354.17,298.4,354.47z"/>
		</g>
	</g>
	<g>
		<g>
			<path d="M1401.95,409.67c2.3,0,4.16-1.86,4.16-4.16c0-2.3-1.86-4.16-4.16-4.16s-4.16,1.86-4.16,4.16
				C1397.79,407.8,1399.66,409.67,1401.95,409.67z"/>
		</g>
		<g>
			<path class="st8" d="M1401.95,409.67c2.3,0,4.16-1.86,4.16-4.16c0-2.3-1.86-4.16-4.16-4.16s-4.16,1.86-4.16,4.16
				C1397.79,407.8,1399.66,409.67,1401.95,409.67z"/>
			<path class="st8" d="M1391.59,429.62c0.94,0.3,2.56-0.05,2.89-1.08c0,0,2.99-11.02,3.24-10.97l-5.65,18.95h5.34l0,14.25
				c0,1.26,0.94,2.3,2.09,2.3s2.09-1.03,2.46-2.3l0-14.25h0.03v14.25c0.28,1.26,1.22,2.3,2.36,2.3c1.15,0,2.09-1.03,2.09-2.3
				l0-14.25h5.31c0,0-1.35-4.53-1.44-4.83c-0.88-2.94-1.74-5.88-2.61-8.82c-0.52-1.77-1.05-3.53-1.6-5.29
				c0.09-0.02,2.17,6.9,3.27,10.34c0.78,2.44,5.22,1.71,4.41-0.87c0,0-4.21-13.27-4.21-13.27c-0.28-0.88-2.08-2.72-3.81-2.72h-7.59
				c-1.83,0-3.5,1.85-3.77,2.72l-4.21,13.27C1389.82,428.07,1390.65,429.32,1391.59,429.62z"/>
		</g>
		<g>
			<path class="st5" d="M1401.95,409.67c2.3,0,4.16-1.86,4.16-4.16c0-2.3-1.86-4.16-4.16-4.16s-4.16,1.86-4.16,4.16
				C1397.79,407.8,1399.66,409.67,1401.95,409.67z"/>
			<path class="st5" d="M1391.59,429.62c0.94,0.3,2.56-0.05,2.89-1.08c0,0,2.99-11.02,3.24-10.97l-5.65,18.95h5.34l0,14.25
				c0,1.26,0.94,2.3,2.09,2.3s2.09-1.03,2.46-2.3l0-14.25h0.03v14.25c0.28,1.26,1.22,2.3,2.36,2.3c1.15,0,2.09-1.03,2.09-2.3
				l0-14.25h5.31c0,0-1.35-4.53-1.44-4.83c-0.88-2.94-1.74-5.88-2.61-8.82c-0.52-1.77-1.05-3.53-1.6-5.29
				c0.09-0.02,2.17,6.9,3.27,10.34c0.78,2.44,5.22,1.71,4.41-0.87c0,0-4.21-13.27-4.21-13.27c-0.28-0.88-2.08-2.72-3.81-2.72h-7.59
				c-1.83,0-3.5,1.85-3.77,2.72l-4.21,13.27C1389.82,428.07,1390.65,429.32,1391.59,429.62z"/>
		</g>
	</g>
	<g>
		<g>
			<ellipse transform="matrix(0.2189 -0.9758 0.9758 0.2189 -358.9004 588.0577)" cx="187.83" cy="518.19" rx="4.16" ry="4.16"/>
		</g>
		<g>
			
				<ellipse transform="matrix(0.2189 -0.9758 0.9758 0.2189 -358.9004 588.0577)" class="st9" cx="187.83" cy="518.19" rx="4.16" ry="4.16"/>
			<path class="st9" d="M177.46,542.3c0.94,0.3,2.56-0.05,2.89-1.08c0,0,2.99-11.02,3.24-10.97l-5.65,18.95h5.34l0,14.25
				c0,1.26,0.94,2.3,2.09,2.3c1.15,0,2.09-1.03,2.46-2.3l0-14.25h0.03v14.25c0.28,1.26,1.22,2.3,2.36,2.3c1.15,0,2.09-1.03,2.09-2.3
				l0-14.25h5.31c0,0-1.35-4.53-1.44-4.83c-0.88-2.94-1.74-5.88-2.61-8.82c-0.52-1.77-1.05-3.53-1.6-5.29
				c0.09-0.02,2.17,6.9,3.27,10.34c0.78,2.44,5.22,1.71,4.41-0.87c0,0-4.21-13.27-4.21-13.27c-0.28-0.88-2.08-2.72-3.81-2.72h-7.59
				c-1.83,0-3.5,1.85-3.77,2.72l-4.21,13.27C175.7,540.75,176.52,542,177.46,542.3z"/>
		</g>
		<g>
			
				<ellipse transform="matrix(0.2189 -0.9758 0.9758 0.2189 -358.9004 588.0577)" class="st5" cx="187.83" cy="518.19" rx="4.16" ry="4.16"/>
			<path class="st5" d="M177.46,542.3c0.94,0.3,2.56-0.05,2.89-1.08c0,0,2.99-11.02,3.24-10.97l-5.65,18.95h5.34l0,14.25
				c0,1.26,0.94,2.3,2.09,2.3c1.15,0,2.09-1.03,2.46-2.3l0-14.25h0.03v14.25c0.28,1.26,1.22,2.3,2.36,2.3c1.15,0,2.09-1.03,2.09-2.3
				l0-14.25h5.31c0,0-1.35-4.53-1.44-4.83c-0.88-2.94-1.74-5.88-2.61-8.82c-0.52-1.77-1.05-3.53-1.6-5.29
				c0.09-0.02,2.17,6.9,3.27,10.34c0.78,2.44,5.22,1.71,4.41-0.87c0,0-4.21-13.27-4.21-13.27c-0.28-0.88-2.08-2.72-3.81-2.72h-7.59
				c-1.83,0-3.5,1.85-3.77,2.72l-4.21,13.27C175.7,540.75,176.52,542,177.46,542.3z"/>
		</g>
	</g>
	<g>
		<g>
			<ellipse transform="matrix(0.2189 -0.9758 0.9758 0.2189 308.9753 1221.9679)" cx="917.69" cy="418.01" rx="4.16" ry="4.16"/>
		</g>
		<g>
			
				<ellipse transform="matrix(0.2189 -0.9758 0.9758 0.2189 308.9753 1221.9679)" class="st9" cx="917.69" cy="418.01" rx="4.16" ry="4.16"/>
			<path class="st9" d="M907.32,442.12c0.94,0.3,2.56-0.05,2.89-1.08c0,0,2.99-11.02,3.24-10.97l-5.65,18.95h5.34l0,14.25
				c0,1.26,0.94,2.3,2.09,2.3c1.15,0,2.09-1.03,2.46-2.3l0-14.25h0.03v14.25c0.28,1.26,1.22,2.3,2.36,2.3c1.15,0,2.09-1.03,2.09-2.3
				l0-14.25h5.31c0,0-1.35-4.53-1.44-4.83c-0.88-2.94-1.74-5.88-2.61-8.82c-0.52-1.77-1.05-3.53-1.6-5.29
				c0.09-0.02,2.17,6.9,3.27,10.34c0.78,2.44,5.22,1.71,4.41-0.87c0,0-4.21-13.27-4.21-13.27c-0.28-0.88-2.08-2.72-3.81-2.72h-7.59
				c-1.83,0-3.5,1.85-3.77,2.72l-4.21,13.27C905.55,440.58,906.38,441.82,907.32,442.12z"/>
		</g>
		<g>
			
				<ellipse transform="matrix(0.2189 -0.9758 0.9758 0.2189 308.9753 1221.9679)" class="st5" cx="917.69" cy="418.01" rx="4.16" ry="4.16"/>
			<path class="st5" d="M907.32,442.12c0.94,0.3,2.56-0.05,2.89-1.08c0,0,2.99-11.02,3.24-10.97l-5.65,18.95h5.34l0,14.25
				c0,1.26,0.94,2.3,2.09,2.3c1.15,0,2.09-1.03,2.46-2.3l0-14.25h0.03v14.25c0.28,1.26,1.22,2.3,2.36,2.3c1.15,0,2.09-1.03,2.09-2.3
				l0-14.25h5.31c0,0-1.35-4.53-1.44-4.83c-0.88-2.94-1.74-5.88-2.61-8.82c-0.52-1.77-1.05-3.53-1.6-5.29
				c0.09-0.02,2.17,6.9,3.27,10.34c0.78,2.44,5.22,1.71,4.41-0.87c0,0-4.21-13.27-4.21-13.27c-0.28-0.88-2.08-2.72-3.81-2.72h-7.59
				c-1.83,0-3.5,1.85-3.77,2.72l-4.21,13.27C905.55,440.58,906.38,441.82,907.32,442.12z"/>
		</g>
	</g>
	<g>
		<g>
			<ellipse transform="matrix(0.2189 -0.9758 0.9758 0.2189 124.1754 932.4485)" cx="644.46" cy="388.67" rx="4.16" ry="4.16"/>
		</g>
		<g>
			
				<ellipse transform="matrix(0.2189 -0.9758 0.9758 0.2189 124.1754 932.4485)" class="st9" cx="644.46" cy="388.67" rx="4.16" ry="4.16"/>
			<path class="st9" d="M634.09,412.78c0.94,0.3,2.56-0.05,2.89-1.08c0,0,2.99-11.02,3.24-10.97l-5.65,18.95h5.34l0,14.25
				c0,1.26,0.94,2.3,2.09,2.3c1.15,0,2.09-1.03,2.46-2.3l0-14.25h0.03v14.25c0.28,1.26,1.22,2.3,2.36,2.3c1.15,0,2.09-1.03,2.09-2.3
				l0-14.25h5.31c0,0-1.35-4.53-1.44-4.83c-0.88-2.94-1.74-5.88-2.61-8.82c-0.52-1.77-1.05-3.53-1.6-5.29
				c0.09-0.02,2.17,6.9,3.27,10.34c0.78,2.44,5.22,1.71,4.41-0.87c0,0-4.21-13.27-4.21-13.27c-0.28-0.88-2.08-2.72-3.81-2.72h-7.59
				c-1.83,0-3.5,1.85-3.77,2.72l-4.21,13.27C632.33,411.24,633.15,412.48,634.09,412.78z"/>
		</g>
		<g>
			
				<ellipse transform="matrix(0.2189 -0.9758 0.9758 0.2189 124.1754 932.4485)" class="st5" cx="644.46" cy="388.67" rx="4.16" ry="4.16"/>
			<path class="st5" d="M634.09,412.78c0.94,0.3,2.56-0.05,2.89-1.08c0,0,2.99-11.02,3.24-10.97l-5.65,18.95h5.34l0,14.25
				c0,1.26,0.94,2.3,2.09,2.3c1.15,0,2.09-1.03,2.46-2.3l0-14.25h0.03v14.25c0.28,1.26,1.22,2.3,2.36,2.3c1.15,0,2.09-1.03,2.09-2.3
				l0-14.25h5.31c0,0-1.35-4.53-1.44-4.83c-0.88-2.94-1.74-5.88-2.61-8.82c-0.52-1.77-1.05-3.53-1.6-5.29
				c0.09-0.02,2.17,6.9,3.27,10.34c0.78,2.44,5.22,1.71,4.41-0.87c0,0-4.21-13.27-4.21-13.27c-0.28-0.88-2.08-2.72-3.81-2.72h-7.59
				c-1.83,0-3.5,1.85-3.77,2.72l-4.21,13.27C632.33,411.24,633.15,412.48,634.09,412.78z"/>
		</g>
	</g>
	<g>
		<g>
			<ellipse transform="matrix(0.2189 -0.9758 0.9758 0.2189 59.2819 1124.9819)" cx="732.27" cy="525.47" rx="4.16" ry="4.16"/>
		</g>
		<g>
			
				<ellipse transform="matrix(0.2189 -0.9758 0.9758 0.2189 59.2819 1124.9819)" class="st9" cx="732.27" cy="525.47" rx="4.16" ry="4.16"/>
			<path class="st9" d="M721.9,549.58c0.94,0.3,2.56-0.05,2.89-1.08c0,0,2.99-11.02,3.24-10.97l-5.65,18.95h5.34l0,14.25
				c0,1.26,0.94,2.3,2.09,2.3s2.09-1.03,2.46-2.3l0-14.25h0.03v14.25c0.28,1.26,1.22,2.3,2.36,2.3c1.15,0,2.09-1.03,2.09-2.3
				l0-14.25h5.31c0,0-1.35-4.53-1.44-4.83c-0.88-2.94-1.74-5.88-2.61-8.82c-0.52-1.77-1.05-3.53-1.6-5.29
				c0.09-0.02,2.17,6.9,3.27,10.34c0.78,2.44,5.22,1.71,4.41-0.87c0,0-4.21-13.27-4.21-13.27c-0.28-0.88-2.08-2.72-3.81-2.72h-7.59
				c-1.83,0-3.5,1.85-3.77,2.72L720.46,547C720.13,548.03,720.96,549.28,721.9,549.58z"/>
		</g>
		<g>
			
				<ellipse transform="matrix(0.2189 -0.9758 0.9758 0.2189 59.2819 1124.9819)" class="st5" cx="732.27" cy="525.47" rx="4.16" ry="4.16"/>
			<path class="st5" d="M721.9,549.58c0.94,0.3,2.56-0.05,2.89-1.08c0,0,2.99-11.02,3.24-10.97l-5.65,18.95h5.34l0,14.25
				c0,1.26,0.94,2.3,2.09,2.3s2.09-1.03,2.46-2.3l0-14.25h0.03v14.25c0.28,1.26,1.22,2.3,2.36,2.3c1.15,0,2.09-1.03,2.09-2.3
				l0-14.25h5.31c0,0-1.35-4.53-1.44-4.83c-0.88-2.94-1.74-5.88-2.61-8.82c-0.52-1.77-1.05-3.53-1.6-5.29
				c0.09-0.02,2.17,6.9,3.27,10.34c0.78,2.44,5.22,1.71,4.41-0.87c0,0-4.21-13.27-4.21-13.27c-0.28-0.88-2.08-2.72-3.81-2.72h-7.59
				c-1.83,0-3.5,1.85-3.77,2.72L720.46,547C720.13,548.03,720.96,549.28,721.9,549.58z"/>
		</g>
	</g>
	<g>
		<g>
			<g>
				
					<ellipse transform="matrix(0.3849 -0.923 0.923 0.3849 216.6693 1260.8943)" class="st4" cx="1054.33" cy="467.89" rx="4.07" ry="4.07"/>
				<g>
					<path class="st4" d="M1049.14,479.86h-0.02l0,11.65c0-0.03,0.01-0.06,0.01-0.1L1049.14,479.86z"/>
					<path class="st4" d="M1059.53,479.86v11.55c0,0.02,0.01,0.04,0.01,0.07L1059.53,479.86L1059.53,479.86z"/>
					<path class="st4" d="M1054.43,493.62l0,18.94c0.37,1.44,1.43,2.62,2.74,2.62c1.3,0,2.37-1.17,2.37-2.62l0-18.94
						c0-0.03,0-0.06,0-0.08l-0.01-0.12h0.01v-1.94c0-0.02-0.01-0.04-0.01-0.07v-11.55h0.01v11.62c0.05,1.08,1.27,1.94,2.25,1.94
						c1,0,2.37-0.9,2.37-2.01v-11.47v-3.22c0-1.61-1.31-2.93-2.93-2.93h-13.84c-1.61,0-2.93,1.31-2.93,2.93v14.7
						c0,1.11,1.37,2.01,2.37,2.01c0.97,0,2.22-0.85,2.3-1.91l0-11.65h0.02l0,11.55c0,0.03-0.01,0.06-0.01,0.1l0,2.03
						c0,0.03,0,0.05,0,0.08v18.94c0,1.44,1.06,2.62,2.37,2.62c1.3,0,2.37-1.17,2.83-2.62l0-18.94H1054.43z"/>
				</g>
			</g>
			<g>
				
					<ellipse transform="matrix(0.3849 -0.923 0.923 0.3849 216.6693 1260.8943)" class="st7" cx="1054.33" cy="467.89" rx="4.07" ry="4.07"/>
				<g>
					<path class="st7" d="M1049.14,479.86h-0.02l0,11.65c0-0.03,0.01-0.06,0.01-0.1L1049.14,479.86z"/>
					<path class="st7" d="M1059.53,479.86v11.55c0,0.02,0.01,0.04,0.01,0.07L1059.53,479.86L1059.53,479.86z"/>
					<path class="st7" d="M1054.43,493.62l0,18.94c0.37,1.44,1.43,2.62,2.74,2.62c1.3,0,2.37-1.17,2.37-2.62l0-18.94
						c0-0.03,0-0.06,0-0.08l-0.01-0.12h0.01v-1.94c0-0.02-0.01-0.04-0.01-0.07v-11.55h0.01v11.62c0.05,1.08,1.27,1.94,2.25,1.94
						c1,0,2.37-0.9,2.37-2.01v-11.47v-3.22c0-1.61-1.31-2.93-2.93-2.93h-13.84c-1.61,0-2.93,1.31-2.93,2.93v14.7
						c0,1.11,1.37,2.01,2.37,2.01c0.97,0,2.22-0.85,2.3-1.91l0-11.65h0.02l0,11.55c0,0.03-0.01,0.06-0.01,0.1l0,2.03
						c0,0.03,0,0.05,0,0.08v18.94c0,1.44,1.06,2.62,2.37,2.62c1.3,0,2.37-1.17,2.83-2.62l0-18.94H1054.43z"/>
				</g>
			</g>
		</g>
	</g>
	<g>
		<g>
			<g>
				
					<ellipse transform="matrix(0.3849 -0.923 0.923 0.3849 57.0654 1026.4036)" class="st4" cx="798.6" cy="470.39" rx="4.07" ry="4.07"/>
				<g>
					<path class="st4" d="M793.41,482.36h-0.02l0,11.65c0-0.03,0.01-0.06,0.01-0.1L793.41,482.36z"/>
					<path class="st4" d="M803.8,482.36v11.55c0,0.02,0.01,0.04,0.01,0.07L803.8,482.36L803.8,482.36z"/>
					<path class="st4" d="M798.7,496.12l0,18.94c0.37,1.44,1.43,2.62,2.74,2.62c1.3,0,2.37-1.17,2.37-2.62l0-18.94
						c0-0.03,0-0.06,0-0.08l-0.01-0.12h0.01v-1.94c0-0.02-0.01-0.04-0.01-0.07v-11.55h0.01v11.62c0.05,1.08,1.27,1.94,2.25,1.94
						c1,0,2.37-0.9,2.37-2.01v-11.47v-3.22c0-1.61-1.31-2.93-2.93-2.93h-13.84c-1.61,0-2.93,1.31-2.93,2.93v14.7
						c0,1.11,1.37,2.01,2.37,2.01c0.97,0,2.22-0.85,2.3-1.91l0-11.65h0.02l0,11.55c0,0.03-0.01,0.06-0.01,0.1l0,2.03
						c0,0.03,0,0.05,0,0.08v18.94c0,1.44,1.06,2.62,2.37,2.62c1.3,0,2.37-1.17,2.83-2.62l0-18.94H798.7z"/>
				</g>
			</g>
			<g>
				
					<ellipse transform="matrix(0.3849 -0.923 0.923 0.3849 57.0654 1026.4036)" class="st7" cx="798.6" cy="470.39" rx="4.07" ry="4.07"/>
				<g>
					<path class="st7" d="M793.41,482.36h-0.02l0,11.65c0-0.03,0.01-0.06,0.01-0.1L793.41,482.36z"/>
					<path class="st7" d="M803.8,482.36v11.55c0,0.02,0.01,0.04,0.01,0.07L803.8,482.36L803.8,482.36z"/>
					<path class="st7" d="M798.7,496.12l0,18.94c0.37,1.44,1.43,2.62,2.74,2.62c1.3,0,2.37-1.17,2.37-2.62l0-18.94
						c0-0.03,0-0.06,0-0.08l-0.01-0.12h0.01v-1.94c0-0.02-0.01-0.04-0.01-0.07v-11.55h0.01v11.62c0.05,1.08,1.27,1.94,2.25,1.94
						c1,0,2.37-0.9,2.37-2.01v-11.47v-3.22c0-1.61-1.31-2.93-2.93-2.93h-13.84c-1.61,0-2.93,1.31-2.93,2.93v14.7
						c0,1.11,1.37,2.01,2.37,2.01c0.97,0,2.22-0.85,2.3-1.91l0-11.65h0.02l0,11.55c0,0.03-0.01,0.06-0.01,0.1l0,2.03
						c0,0.03,0,0.05,0,0.08v18.94c0,1.44,1.06,2.62,2.37,2.62c1.3,0,2.37-1.17,2.83-2.62l0-18.94H798.7z"/>
				</g>
			</g>
		</g>
	</g>
	<g>
		<g>
			<g>
				
					<ellipse transform="matrix(0.3849 -0.923 0.923 0.3849 304.6349 1486.3445)" class="st4" cx="1267.46" cy="514.62" rx="4.07" ry="4.07"/>
				<g>
					<path class="st4" d="M1262.27,526.59h-0.02l0,11.65c0-0.03,0.01-0.06,0.01-0.1L1262.27,526.59z"/>
					<path class="st4" d="M1272.66,526.59v11.55c0,0.02,0.01,0.04,0.01,0.07L1272.66,526.59L1272.66,526.59z"/>
					<path class="st4" d="M1267.56,540.35l0,18.94c0.37,1.44,1.43,2.62,2.74,2.62c1.3,0,2.37-1.17,2.37-2.62l0-18.94
						c0-0.03,0-0.06,0-0.08l-0.01-0.12h0.01v-1.94c0-0.02-0.01-0.04-0.01-0.07v-11.55h0.01v11.62c0.05,1.08,1.27,1.94,2.25,1.94
						c1,0,2.37-0.9,2.37-2.01v-11.47v-3.22c0-1.61-1.31-2.93-2.93-2.93h-13.84c-1.61,0-2.93,1.31-2.93,2.93v14.7
						c0,1.11,1.37,2.01,2.37,2.01c0.97,0,2.22-0.85,2.3-1.91l0-11.65h0.02l0,11.55c0,0.03-0.01,0.06-0.01,0.1l0,2.03
						c0,0.03,0,0.05,0,0.08v18.94c0,1.44,1.06,2.62,2.37,2.62c1.3,0,2.37-1.17,2.83-2.62l0-18.94H1267.56z"/>
				</g>
			</g>
			<g>
				
					<ellipse transform="matrix(0.3849 -0.923 0.923 0.3849 304.6349 1486.3445)" class="st7" cx="1267.46" cy="514.62" rx="4.07" ry="4.07"/>
				<g>
					<path class="st7" d="M1262.27,526.59h-0.02l0,11.65c0-0.03,0.01-0.06,0.01-0.1L1262.27,526.59z"/>
					<path class="st7" d="M1272.66,526.59v11.55c0,0.02,0.01,0.04,0.01,0.07L1272.66,526.59L1272.66,526.59z"/>
					<path class="st7" d="M1267.56,540.35l0,18.94c0.37,1.44,1.43,2.62,2.74,2.62c1.3,0,2.37-1.17,2.37-2.62l0-18.94
						c0-0.03,0-0.06,0-0.08l-0.01-0.12h0.01v-1.94c0-0.02-0.01-0.04-0.01-0.07v-11.55h0.01v11.62c0.05,1.08,1.27,1.94,2.25,1.94
						c1,0,2.37-0.9,2.37-2.01v-11.47v-3.22c0-1.61-1.31-2.93-2.93-2.93h-13.84c-1.61,0-2.93,1.31-2.93,2.93v14.7
						c0,1.11,1.37,2.01,2.37,2.01c0.97,0,2.22-0.85,2.3-1.91l0-11.65h0.02l0,11.55c0,0.03-0.01,0.06-0.01,0.1l0,2.03
						c0,0.03,0,0.05,0,0.08v18.94c0,1.44,1.06,2.62,2.37,2.62c1.3,0,2.37-1.17,2.83-2.62l0-18.94H1267.56z"/>
				</g>
			</g>
		</g>
	</g>
	<g>
		<g>
			<g>
				
					<ellipse transform="matrix(0.3849 -0.923 0.923 0.3849 -14.0044 895.1301)" class="st4" cx="664.58" cy="458.07" rx="4.07" ry="4.07"/>
				<g>
					<path class="st4" d="M659.39,470.04h-0.02l0,11.65c0-0.03,0.01-0.06,0.01-0.1L659.39,470.04z"/>
					<path class="st4" d="M669.77,470.04v11.55c0,0.02,0.01,0.04,0.01,0.07L669.77,470.04L669.77,470.04z"/>
					<path class="st4" d="M664.68,483.81l0,18.94c0.37,1.44,1.43,2.62,2.74,2.62c1.3,0,2.37-1.17,2.37-2.62l0-18.94
						c0-0.03,0-0.06,0-0.08l-0.01-0.12h0.01v-1.94c0-0.02-0.01-0.04-0.01-0.07v-11.55h0.01v11.62c0.05,1.08,1.27,1.94,2.25,1.94
						c1,0,2.37-0.9,2.37-2.01v-11.47v-3.22c0-1.61-1.31-2.93-2.93-2.93h-13.84c-1.61,0-2.93,1.31-2.93,2.93v14.7
						c0,1.11,1.37,2.01,2.37,2.01c0.97,0,2.22-0.85,2.3-1.91l0-11.65h0.02l0,11.55c0,0.03-0.01,0.06-0.01,0.1l0,2.03
						c0,0.03,0,0.05,0,0.08v18.94c0,1.44,1.06,2.62,2.37,2.62c1.3,0,2.37-1.17,2.83-2.62l0-18.94H664.68z"/>
				</g>
			</g>
			<g>
				
					<ellipse transform="matrix(0.3849 -0.923 0.923 0.3849 -14.0044 895.1301)" class="st7" cx="664.58" cy="458.07" rx="4.07" ry="4.07"/>
				<g>
					<path class="st7" d="M659.39,470.04h-0.02l0,11.65c0-0.03,0.01-0.06,0.01-0.1L659.39,470.04z"/>
					<path class="st7" d="M669.77,470.04v11.55c0,0.02,0.01,0.04,0.01,0.07L669.77,470.04L669.77,470.04z"/>
					<path class="st7" d="M664.68,483.81l0,18.94c0.37,1.44,1.43,2.62,2.74,2.62c1.3,0,2.37-1.17,2.37-2.62l0-18.94
						c0-0.03,0-0.06,0-0.08l-0.01-0.12h0.01v-1.94c0-0.02-0.01-0.04-0.01-0.07v-11.55h0.01v11.62c0.05,1.08,1.27,1.94,2.25,1.94
						c1,0,2.37-0.9,2.37-2.01v-11.47v-3.22c0-1.61-1.31-2.93-2.93-2.93h-13.84c-1.61,0-2.93,1.31-2.93,2.93v14.7
						c0,1.11,1.37,2.01,2.37,2.01c0.97,0,2.22-0.85,2.3-1.91l0-11.65h0.02l0,11.55c0,0.03-0.01,0.06-0.01,0.1l0,2.03
						c0,0.03,0,0.05,0,0.08v18.94c0,1.44,1.06,2.62,2.37,2.62c1.3,0,2.37-1.17,2.83-2.62l0-18.94H664.68z"/>
				</g>
			</g>
		</g>
	</g>
	<g>
		<g>
			<g>
				<circle class="st8" cx="498.38" cy="457.91" r="4.07"/>
				<g>
					<path class="st8" d="M493.2,469.88h-0.02l0,11.65c0-0.03,0.01-0.06,0.01-0.1L493.2,469.88z"/>
					<path class="st8" d="M503.58,469.88v11.55c0,0.02,0.01,0.04,0.01,0.07L503.58,469.88L503.58,469.88z"/>
					<path class="st8" d="M498.49,483.64l0,18.94c0.37,1.44,1.43,2.62,2.74,2.62c1.3,0,2.37-1.17,2.37-2.62l0-18.94
						c0-0.03,0-0.06,0-0.08l-0.01-0.12h0.01v-1.94c0-0.02-0.01-0.04-0.01-0.07v-11.55h0.01v11.62c0.05,1.08,1.27,1.94,2.25,1.94
						c1,0,2.37-0.9,2.37-2.01v-11.47v-3.22c0-1.61-1.31-2.93-2.93-2.93h-13.84c-1.61,0-2.93,1.31-2.93,2.93v14.7
						c0,1.11,1.37,2.01,2.37,2.01c0.97,0,2.22-0.85,2.3-1.91l0-11.65h0.02l0,11.55c0,0.03-0.01,0.06-0.01,0.1l0,2.03
						c0,0.03,0,0.05,0,0.08v18.94c0,1.44,1.06,2.62,2.37,2.62c1.3,0,2.37-1.17,2.83-2.62l0-18.94H498.49z"/>
				</g>
			</g>
			<g>
				<circle class="st5" cx="498.38" cy="457.91" r="4.07"/>
				<g>
					<path class="st5" d="M493.2,469.88h-0.02l0,11.65c0-0.03,0.01-0.06,0.01-0.1L493.2,469.88z"/>
					<path class="st5" d="M503.58,469.88v11.55c0,0.02,0.01,0.04,0.01,0.07L503.58,469.88L503.58,469.88z"/>
					<path class="st5" d="M498.49,483.64l0,18.94c0.37,1.44,1.43,2.62,2.74,2.62c1.3,0,2.37-1.17,2.37-2.62l0-18.94
						c0-0.03,0-0.06,0-0.08l-0.01-0.12h0.01v-1.94c0-0.02-0.01-0.04-0.01-0.07v-11.55h0.01v11.62c0.05,1.08,1.27,1.94,2.25,1.94
						c1,0,2.37-0.9,2.37-2.01v-11.47v-3.22c0-1.61-1.31-2.93-2.93-2.93h-13.84c-1.61,0-2.93,1.31-2.93,2.93v14.7
						c0,1.11,1.37,2.01,2.37,2.01c0.97,0,2.22-0.85,2.3-1.91l0-11.65h0.02l0,11.55c0,0.03-0.01,0.06-0.01,0.1l0,2.03
						c0,0.03,0,0.05,0,0.08v18.94c0,1.44,1.06,2.62,2.37,2.62c1.3,0,2.37-1.17,2.83-2.62l0-18.94H498.49z"/>
				</g>
			</g>
		</g>
	</g>
	<g>
		<g>
			<g>
				<circle class="st8" cx="1152.63" cy="448.73" r="4.07"/>
				<g>
					<path class="st8" d="M1147.44,460.7h-0.02l0,11.65c0-0.03,0.01-0.06,0.01-0.1L1147.44,460.7z"/>
					<path class="st8" d="M1157.82,460.7v11.55c0,0.02,0.01,0.04,0.01,0.07L1157.82,460.7L1157.82,460.7z"/>
					<path class="st8" d="M1152.73,474.47l0,18.94c0.37,1.44,1.43,2.62,2.74,2.62c1.3,0,2.37-1.17,2.37-2.62l0-18.94
						c0-0.03,0-0.06,0-0.08l-0.01-0.12h0.01v-1.94c0-0.02-0.01-0.04-0.01-0.07V460.7h0.01v11.62c0.05,1.08,1.27,1.94,2.25,1.94
						c1,0,2.37-0.9,2.37-2.01v-11.47v-3.22c0-1.61-1.31-2.93-2.93-2.93h-13.84c-1.61,0-2.93,1.31-2.93,2.93v14.7
						c0,1.11,1.37,2.01,2.37,2.01c0.97,0,2.22-0.85,2.3-1.91l0-11.65h0.02l0,11.55c0,0.03-0.01,0.06-0.01,0.1l0,2.03
						c0,0.03,0,0.05,0,0.08v18.94c0,1.44,1.06,2.62,2.37,2.62c1.3,0,2.37-1.17,2.83-2.62l0-18.94H1152.73z"/>
				</g>
			</g>
			<g>
				<circle class="st5" cx="1152.63" cy="448.73" r="4.07"/>
				<g>
					<path class="st5" d="M1147.44,460.7h-0.02l0,11.65c0-0.03,0.01-0.06,0.01-0.1L1147.44,460.7z"/>
					<path class="st5" d="M1157.82,460.7v11.55c0,0.02,0.01,0.04,0.01,0.07L1157.82,460.7L1157.82,460.7z"/>
					<path class="st5" d="M1152.73,474.47l0,18.94c0.37,1.44,1.43,2.62,2.74,2.62c1.3,0,2.37-1.17,2.37-2.62l0-18.94
						c0-0.03,0-0.06,0-0.08l-0.01-0.12h0.01v-1.94c0-0.02-0.01-0.04-0.01-0.07V460.7h0.01v11.62c0.05,1.08,1.27,1.94,2.25,1.94
						c1,0,2.37-0.9,2.37-2.01v-11.47v-3.22c0-1.61-1.31-2.93-2.93-2.93h-13.84c-1.61,0-2.93,1.31-2.93,2.93v14.7
						c0,1.11,1.37,2.01,2.37,2.01c0.97,0,2.22-0.85,2.3-1.91l0-11.65h0.02l0,11.55c0,0.03-0.01,0.06-0.01,0.1l0,2.03
						c0,0.03,0,0.05,0,0.08v18.94c0,1.44,1.06,2.62,2.37,2.62c1.3,0,2.37-1.17,2.83-2.62l0-18.94H1152.73z"/>
				</g>
			</g>
		</g>
	</g>
	<g>
		<g>
			<g>
				<circle class="st8" cx="728.97" cy="361.76" r="4.07"/>
				<g>
					<path class="st8" d="M723.78,373.73h-0.02l0,11.65c0-0.03,0.01-0.06,0.01-0.1L723.78,373.73z"/>
					<path class="st8" d="M734.17,373.73v11.55c0,0.02,0.01,0.04,0.01,0.07L734.17,373.73L734.17,373.73z"/>
					<path class="st8" d="M729.08,387.49l0,18.94c0.37,1.44,1.43,2.62,2.74,2.62c1.3,0,2.37-1.17,2.37-2.62l0-18.94
						c0-0.03,0-0.06,0-0.08l-0.01-0.12h0.01v-1.94c0-0.02-0.01-0.04-0.01-0.07v-11.55h0.01v11.62c0.05,1.08,1.27,1.94,2.25,1.94
						c1,0,2.37-0.9,2.37-2.01V373.8v-3.22c0-1.61-1.31-2.93-2.93-2.93h-13.84c-1.61,0-2.93,1.31-2.93,2.93v14.7
						c0,1.11,1.37,2.01,2.37,2.01c0.97,0,2.22-0.85,2.3-1.91l0-11.65h0.02l0,11.55c0,0.03-0.01,0.06-0.01,0.1l0,2.03
						c0,0.03,0,0.05,0,0.08v18.94c0,1.44,1.06,2.62,2.37,2.62c1.3,0,2.37-1.17,2.83-2.62l0-18.94H729.08z"/>
				</g>
			</g>
			<g>
				<circle class="st5" cx="728.97" cy="361.76" r="4.07"/>
				<g>
					<path class="st5" d="M723.78,373.73h-0.02l0,11.65c0-0.03,0.01-0.06,0.01-0.1L723.78,373.73z"/>
					<path class="st5" d="M734.17,373.73v11.55c0,0.02,0.01,0.04,0.01,0.07L734.17,373.73L734.17,373.73z"/>
					<path class="st5" d="M729.08,387.49l0,18.94c0.37,1.44,1.43,2.62,2.74,2.62c1.3,0,2.37-1.17,2.37-2.62l0-18.94
						c0-0.03,0-0.06,0-0.08l-0.01-0.12h0.01v-1.94c0-0.02-0.01-0.04-0.01-0.07v-11.55h0.01v11.62c0.05,1.08,1.27,1.94,2.25,1.94
						c1,0,2.37-0.9,2.37-2.01V373.8v-3.22c0-1.61-1.31-2.93-2.93-2.93h-13.84c-1.61,0-2.93,1.31-2.93,2.93v14.7
						c0,1.11,1.37,2.01,2.37,2.01c0.97,0,2.22-0.85,2.3-1.91l0-11.65h0.02l0,11.55c0,0.03-0.01,0.06-0.01,0.1l0,2.03
						c0,0.03,0,0.05,0,0.08v18.94c0,1.44,1.06,2.62,2.37,2.62c1.3,0,2.37-1.17,2.83-2.62l0-18.94H729.08z"/>
				</g>
			</g>
		</g>
	</g>
	<g>
		<g>
			<g>
				<circle class="st8" cx="231.33" cy="397.08" r="4.07"/>
				<g>
					<path class="st8" d="M226.14,409.06h-0.02l0,11.65c0-0.03,0.01-0.06,0.01-0.1L226.14,409.06z"/>
					<path class="st8" d="M236.52,409.06v11.55c0,0.02,0.01,0.04,0.01,0.07L236.52,409.06L236.52,409.06z"/>
					<path class="st8" d="M231.43,422.82l0,18.94c0.37,1.44,1.43,2.62,2.74,2.62c1.3,0,2.37-1.17,2.37-2.62l0-18.94
						c0-0.03,0-0.06,0-0.08l-0.01-0.12h0.01v-1.94c0-0.02-0.01-0.04-0.01-0.07v-11.55h0.01v11.62c0.05,1.08,1.27,1.94,2.25,1.94
						c1,0,2.37-0.9,2.37-2.01v-11.47v-3.22c0-1.61-1.31-2.93-2.93-2.93h-13.84c-1.61,0-2.93,1.31-2.93,2.93v14.7
						c0,1.11,1.37,2.01,2.37,2.01c0.97,0,2.22-0.85,2.3-1.91l0-11.65h0.02l0,11.55c0,0.03-0.01,0.06-0.01,0.1l0,2.03
						c0,0.03,0,0.05,0,0.08v18.94c0,1.44,1.06,2.62,2.37,2.62c1.3,0,2.37-1.17,2.83-2.62l0-18.94H231.43z"/>
				</g>
			</g>
			<g>
				<circle class="st5" cx="231.33" cy="397.08" r="4.07"/>
				<g>
					<path class="st5" d="M226.14,409.06h-0.02l0,11.65c0-0.03,0.01-0.06,0.01-0.1L226.14,409.06z"/>
					<path class="st5" d="M236.52,409.06v11.55c0,0.02,0.01,0.04,0.01,0.07L236.52,409.06L236.52,409.06z"/>
					<path class="st5" d="M231.43,422.82l0,18.94c0.37,1.44,1.43,2.62,2.74,2.62c1.3,0,2.37-1.17,2.37-2.62l0-18.94
						c0-0.03,0-0.06,0-0.08l-0.01-0.12h0.01v-1.94c0-0.02-0.01-0.04-0.01-0.07v-11.55h0.01v11.62c0.05,1.08,1.27,1.94,2.25,1.94
						c1,0,2.37-0.9,2.37-2.01v-11.47v-3.22c0-1.61-1.31-2.93-2.93-2.93h-13.84c-1.61,0-2.93,1.31-2.93,2.93v14.7
						c0,1.11,1.37,2.01,2.37,2.01c0.97,0,2.22-0.85,2.3-1.91l0-11.65h0.02l0,11.55c0,0.03-0.01,0.06-0.01,0.1l0,2.03
						c0,0.03,0,0.05,0,0.08v18.94c0,1.44,1.06,2.62,2.37,2.62c1.3,0,2.37-1.17,2.83-2.62l0-18.94H231.43z"/>
				</g>
			</g>
		</g>
	</g>
	<g>
		<g>
			<path d="M135.67,414.81c2.3,0,4.16-1.86,4.16-4.16c0-2.3-1.86-4.16-4.16-4.16c-2.3,0-4.16,1.86-4.16,4.16
				C131.51,412.94,133.38,414.81,135.67,414.81z"/>
		</g>
		<g>
			<path class="st6" d="M135.67,414.81c2.3,0,4.16-1.86,4.16-4.16c0-2.3-1.86-4.16-4.16-4.16c-2.3,0-4.16,1.86-4.16,4.16
				C131.51,412.94,133.38,414.81,135.67,414.81z"/>
			<path class="st6" d="M125.3,434.76c0.94,0.3,2.56-0.05,2.89-1.08c0,0,2.99-11.02,3.24-10.97l-5.65,18.95h5.34l0,14.25
				c0,1.26,0.94,2.3,2.09,2.3c1.15,0,2.09-1.03,2.46-2.3l0-14.25h0.03v14.25c0.28,1.26,1.22,2.3,2.36,2.3c1.15,0,2.09-1.03,2.09-2.3
				l0-14.25h5.31c0,0-1.35-4.53-1.44-4.83c-0.88-2.94-1.74-5.88-2.61-8.82c-0.52-1.77-1.05-3.53-1.6-5.29
				c0.09-0.02,2.17,6.9,3.27,10.34c0.78,2.44,5.22,1.71,4.41-0.87c0,0-4.21-13.27-4.21-13.27c-0.28-0.88-2.08-2.72-3.81-2.72h-7.59
				c-1.83,0-3.5,1.85-3.77,2.72l-4.21,13.27C123.54,433.21,124.36,434.46,125.3,434.76z"/>
		</g>
		<g>
			<path class="st5" d="M135.67,414.81c2.3,0,4.16-1.86,4.16-4.16c0-2.3-1.86-4.16-4.16-4.16c-2.3,0-4.16,1.86-4.16,4.16
				C131.51,412.94,133.38,414.81,135.67,414.81z"/>
			<path class="st5" d="M125.3,434.76c0.94,0.3,2.56-0.05,2.89-1.08c0,0,2.99-11.02,3.24-10.97l-5.65,18.95h5.34l0,14.25
				c0,1.26,0.94,2.3,2.09,2.3c1.15,0,2.09-1.03,2.46-2.3l0-14.25h0.03v14.25c0.28,1.26,1.22,2.3,2.36,2.3c1.15,0,2.09-1.03,2.09-2.3
				l0-14.25h5.31c0,0-1.35-4.53-1.44-4.83c-0.88-2.94-1.74-5.88-2.61-8.82c-0.52-1.77-1.05-3.53-1.6-5.29
				c0.09-0.02,2.17,6.9,3.27,10.34c0.78,2.44,5.22,1.71,4.41-0.87c0,0-4.21-13.27-4.21-13.27c-0.28-0.88-2.08-2.72-3.81-2.72h-7.59
				c-1.83,0-3.5,1.85-3.77,2.72l-4.21,13.27C123.54,433.21,124.36,434.46,125.3,434.76z"/>
		</g>
	</g>
	<g>
		<g>
			<path d="M427.88,347.85c2.3,0,4.16-1.86,4.16-4.16c0-2.3-1.86-4.16-4.16-4.16s-4.16,1.86-4.16,4.16
				C423.72,345.98,425.59,347.85,427.88,347.85z"/>
		</g>
		<g>
			<path class="st6" d="M427.88,347.85c2.3,0,4.16-1.86,4.16-4.16c0-2.3-1.86-4.16-4.16-4.16s-4.16,1.86-4.16,4.16
				C423.72,345.98,425.59,347.85,427.88,347.85z"/>
			<path class="st6" d="M417.51,367.8c0.94,0.3,2.56-0.05,2.89-1.08c0,0,2.99-11.02,3.24-10.97l-5.65,18.95h5.34l0,14.25
				c0,1.26,0.94,2.3,2.09,2.3c1.15,0,2.09-1.03,2.46-2.3l0-14.25h0.03v14.25c0.28,1.26,1.22,2.3,2.36,2.3c1.15,0,2.09-1.03,2.09-2.3
				l0-14.25h5.31c0,0-1.35-4.53-1.44-4.83c-0.88-2.94-1.74-5.88-2.61-8.82c-0.52-1.77-1.05-3.53-1.6-5.29
				c0.09-0.02,2.17,6.9,3.27,10.34c0.78,2.44,5.22,1.71,4.41-0.87c0,0-4.21-13.27-4.21-13.27c-0.28-0.88-2.08-2.72-3.81-2.72h-7.59
				c-1.83,0-3.5,1.85-3.77,2.72l-4.21,13.27C415.75,366.25,416.57,367.5,417.51,367.8z"/>
		</g>
		<g>
			<path class="st5" d="M427.88,347.85c2.3,0,4.16-1.86,4.16-4.16c0-2.3-1.86-4.16-4.16-4.16s-4.16,1.86-4.16,4.16
				C423.72,345.98,425.59,347.85,427.88,347.85z"/>
			<path class="st5" d="M417.51,367.8c0.94,0.3,2.56-0.05,2.89-1.08c0,0,2.99-11.02,3.24-10.97l-5.65,18.95h5.34l0,14.25
				c0,1.26,0.94,2.3,2.09,2.3c1.15,0,2.09-1.03,2.46-2.3l0-14.25h0.03v14.25c0.28,1.26,1.22,2.3,2.36,2.3c1.15,0,2.09-1.03,2.09-2.3
				l0-14.25h5.31c0,0-1.35-4.53-1.44-4.83c-0.88-2.94-1.74-5.88-2.61-8.82c-0.52-1.77-1.05-3.53-1.6-5.29
				c0.09-0.02,2.17,6.9,3.27,10.34c0.78,2.44,5.22,1.71,4.41-0.87c0,0-4.21-13.27-4.21-13.27c-0.28-0.88-2.08-2.72-3.81-2.72h-7.59
				c-1.83,0-3.5,1.85-3.77,2.72l-4.21,13.27C415.75,366.25,416.57,367.5,417.51,367.8z"/>
		</g>
	</g>
	<g>
		<g>
			<path d="M1026.51,535.79c2.3,0,4.16-1.86,4.16-4.16c0-2.3-1.86-4.16-4.16-4.16s-4.16,1.86-4.16,4.16
				C1022.35,533.93,1024.22,535.79,1026.51,535.79z"/>
		</g>
		<g>
			<path class="st6" d="M1026.51,535.79c2.3,0,4.16-1.86,4.16-4.16c0-2.3-1.86-4.16-4.16-4.16s-4.16,1.86-4.16,4.16
				C1022.35,533.93,1024.22,535.79,1026.51,535.79z"/>
			<path class="st6" d="M1016.14,555.74c0.94,0.3,2.56-0.05,2.89-1.08c0,0,2.99-11.02,3.24-10.97l-5.65,18.95h5.34l0,14.25
				c0,1.26,0.94,2.3,2.09,2.3c1.15,0,2.09-1.03,2.46-2.3l0-14.25h0.03v14.25c0.28,1.26,1.22,2.3,2.36,2.3c1.15,0,2.09-1.03,2.09-2.3
				l0-14.25h5.31c0,0-1.35-4.53-1.44-4.83c-0.88-2.94-1.74-5.88-2.61-8.82c-0.52-1.77-1.05-3.53-1.6-5.29
				c0.09-0.02,2.17,6.9,3.27,10.34c0.78,2.44,5.22,1.71,4.41-0.87c0,0-4.21-13.27-4.21-13.27c-0.28-0.88-2.08-2.72-3.81-2.72h-7.59
				c-1.83,0-3.5,1.85-3.77,2.72l-4.21,13.27C1014.38,554.2,1015.2,555.45,1016.14,555.74z"/>
		</g>
		<g>
			<path class="st5" d="M1026.51,535.79c2.3,0,4.16-1.86,4.16-4.16c0-2.3-1.86-4.16-4.16-4.16s-4.16,1.86-4.16,4.16
				C1022.35,533.93,1024.22,535.79,1026.51,535.79z"/>
			<path class="st5" d="M1016.14,555.74c0.94,0.3,2.56-0.05,2.89-1.08c0,0,2.99-11.02,3.24-10.97l-5.65,18.95h5.34l0,14.25
				c0,1.26,0.94,2.3,2.09,2.3c1.15,0,2.09-1.03,2.46-2.3l0-14.25h0.03v14.25c0.28,1.26,1.22,2.3,2.36,2.3c1.15,0,2.09-1.03,2.09-2.3
				l0-14.25h5.31c0,0-1.35-4.53-1.44-4.83c-0.88-2.94-1.74-5.88-2.61-8.82c-0.52-1.77-1.05-3.53-1.6-5.29
				c0.09-0.02,2.17,6.9,3.27,10.34c0.78,2.44,5.22,1.71,4.41-0.87c0,0-4.21-13.27-4.21-13.27c-0.28-0.88-2.08-2.72-3.81-2.72h-7.59
				c-1.83,0-3.5,1.85-3.77,2.72l-4.21,13.27C1014.38,554.2,1015.2,555.45,1016.14,555.74z"/>
		</g>
	</g>
	<g>
		<g>
			<path d="M602.15,521.97c2.3,0,4.16-1.86,4.16-4.16c0-2.3-1.86-4.16-4.16-4.16c-2.3,0-4.16,1.86-4.16,4.16
				C597.99,520.11,599.85,521.97,602.15,521.97z"/>
		</g>
		<g>
			<path class="st6" d="M602.15,521.97c2.3,0,4.16-1.86,4.16-4.16c0-2.3-1.86-4.16-4.16-4.16c-2.3,0-4.16,1.86-4.16,4.16
				C597.99,520.11,599.85,521.97,602.15,521.97z"/>
			<path class="st6" d="M591.78,541.92c0.94,0.3,2.56-0.05,2.89-1.08c0,0,2.99-11.02,3.24-10.97l-5.65,18.95h5.34l0,14.25
				c0,1.26,0.94,2.3,2.09,2.3c1.15,0,2.09-1.03,2.46-2.3l0-14.25h0.03v14.25c0.28,1.26,1.22,2.3,2.36,2.3c1.15,0,2.09-1.03,2.09-2.3
				l0-14.25h5.31c0,0-1.35-4.53-1.44-4.83c-0.88-2.94-1.74-5.88-2.61-8.82c-0.52-1.77-1.05-3.53-1.6-5.29
				c0.09-0.02,2.17,6.9,3.27,10.34c0.78,2.44,5.22,1.71,4.41-0.87c0,0-4.21-13.27-4.21-13.27c-0.28-0.88-2.08-2.72-3.81-2.72h-7.59
				c-1.83,0-3.5,1.85-3.77,2.72l-4.21,13.27C590.01,540.38,590.84,541.62,591.78,541.92z"/>
		</g>
		<g>
			<path class="st5" d="M602.15,521.97c2.3,0,4.16-1.86,4.16-4.16c0-2.3-1.86-4.16-4.16-4.16c-2.3,0-4.16,1.86-4.16,4.16
				C597.99,520.11,599.85,521.97,602.15,521.97z"/>
			<path class="st5" d="M591.78,541.92c0.94,0.3,2.56-0.05,2.89-1.08c0,0,2.99-11.02,3.24-10.97l-5.65,18.95h5.34l0,14.25
				c0,1.26,0.94,2.3,2.09,2.3c1.15,0,2.09-1.03,2.46-2.3l0-14.25h0.03v14.25c0.28,1.26,1.22,2.3,2.36,2.3c1.15,0,2.09-1.03,2.09-2.3
				l0-14.25h5.31c0,0-1.35-4.53-1.44-4.83c-0.88-2.94-1.74-5.88-2.61-8.82c-0.52-1.77-1.05-3.53-1.6-5.29
				c0.09-0.02,2.17,6.9,3.27,10.34c0.78,2.44,5.22,1.71,4.41-0.87c0,0-4.21-13.27-4.21-13.27c-0.28-0.88-2.08-2.72-3.81-2.72h-7.59
				c-1.83,0-3.5,1.85-3.77,2.72l-4.21,13.27C590.01,540.38,590.84,541.62,591.78,541.92z"/>
		</g>
	</g>
	<g>
		<g>
			<g>
				
					<ellipse transform="matrix(0.3849 -0.923 0.923 0.3849 -305.7832 256.7469)" class="st4" cx="39.74" cy="357.79" rx="4.07" ry="4.07"/>
				<g>
					<path class="st4" d="M34.55,369.76h-0.02l0,11.65c0-0.03,0.01-0.06,0.01-0.1L34.55,369.76z"/>
					<path class="st4" d="M44.93,369.76v11.55c0,0.02,0.01,0.04,0.01,0.07L44.93,369.76L44.93,369.76z"/>
					<path class="st4" d="M39.84,383.53l0,18.94c0.37,1.44,1.43,2.62,2.74,2.62c1.3,0,2.37-1.17,2.37-2.62l0-18.94
						c0-0.03,0-0.06,0-0.08l-0.01-0.12h0.01v-1.94c0-0.02-0.01-0.04-0.01-0.07v-11.55h0.01v11.62c0.05,1.08,1.27,1.94,2.25,1.94
						c1,0,2.37-0.9,2.37-2.01v-11.47v-3.22c0-1.61-1.31-2.93-2.93-2.93H32.79c-1.61,0-2.93,1.31-2.93,2.93v14.7
						c0,1.11,1.37,2.01,2.37,2.01c0.97,0,2.22-0.85,2.3-1.91l0-11.65h0.02l0,11.55c0,0.03-0.01,0.06-0.01,0.1l0,2.03
						c0,0.03,0,0.05,0,0.08v18.94c0,1.44,1.06,2.62,2.37,2.62c1.3,0,2.37-1.17,2.83-2.62l0-18.94H39.84z"/>
				</g>
			</g>
			<g>
				
					<ellipse transform="matrix(0.3849 -0.923 0.923 0.3849 -305.7832 256.7469)" class="st7" cx="39.74" cy="357.79" rx="4.07" ry="4.07"/>
				<g>
					<path class="st7" d="M34.55,369.76h-0.02l0,11.65c0-0.03,0.01-0.06,0.01-0.1L34.55,369.76z"/>
					<path class="st7" d="M44.93,369.76v11.55c0,0.02,0.01,0.04,0.01,0.07L44.93,369.76L44.93,369.76z"/>
					<path class="st7" d="M39.84,383.53l0,18.94c0.37,1.44,1.43,2.62,2.74,2.62c1.3,0,2.37-1.17,2.37-2.62l0-18.94
						c0-0.03,0-0.06,0-0.08l-0.01-0.12h0.01v-1.94c0-0.02-0.01-0.04-0.01-0.07v-11.55h0.01v11.62c0.05,1.08,1.27,1.94,2.25,1.94
						c1,0,2.37-0.9,2.37-2.01v-11.47v-3.22c0-1.61-1.31-2.93-2.93-2.93H32.79c-1.61,0-2.93,1.31-2.93,2.93v14.7
						c0,1.11,1.37,2.01,2.37,2.01c0.97,0,2.22-0.85,2.3-1.91l0-11.65h0.02l0,11.55c0,0.03-0.01,0.06-0.01,0.1l0,2.03
						c0,0.03,0,0.05,0,0.08v18.94c0,1.44,1.06,2.62,2.37,2.62c1.3,0,2.37-1.17,2.83-2.62l0-18.94H39.84z"/>
				</g>
			</g>
		</g>
	</g>
	<g>
		<g>
			<ellipse transform="matrix(0.9992 -0.0404 0.0404 0.9992 -20.4958 36.6676)" cx="897.79" cy="525.89" rx="4.16" ry="4.16"/>
		</g>
		<g>
			
				<ellipse transform="matrix(0.9992 -0.0404 0.0404 0.9992 -20.4958 36.6676)" class="st4" cx="897.79" cy="525.89" rx="4.16" ry="4.16"/>
			<path class="st4" d="M887.42,550c0.94,0.3,2.56-0.05,2.89-1.08c0,0,2.99-11.02,3.24-10.97l-5.65,18.95h5.34l0,14.25
				c0,1.26,0.94,2.3,2.09,2.3s2.09-1.03,2.46-2.3l0-14.25h0.03v14.25c0.28,1.26,1.22,2.3,2.36,2.3c1.15,0,2.09-1.03,2.09-2.3
				l0-14.25h5.31c0,0-1.35-4.53-1.44-4.83c-0.88-2.94-1.74-5.88-2.61-8.82c-0.52-1.77-1.05-3.53-1.6-5.29
				c0.09-0.02,2.17,6.9,3.27,10.34c0.78,2.44,5.22,1.71,4.41-0.87c0,0-4.21-13.27-4.21-13.27c-0.28-0.88-2.08-2.72-3.81-2.72h-7.59
				c-1.83,0-3.5,1.85-3.77,2.72l-4.21,13.27C885.65,548.46,886.48,549.71,887.42,550z"/>
		</g>
		<g>
			
				<ellipse transform="matrix(0.9992 -0.0404 0.0404 0.9992 -20.4958 36.6676)" class="st5" cx="897.79" cy="525.89" rx="4.16" ry="4.16"/>
			<path class="st5" d="M887.42,550c0.94,0.3,2.56-0.05,2.89-1.08c0,0,2.99-11.02,3.24-10.97l-5.65,18.95h5.34l0,14.25
				c0,1.26,0.94,2.3,2.09,2.3s2.09-1.03,2.46-2.3l0-14.25h0.03v14.25c0.28,1.26,1.22,2.3,2.36,2.3c1.15,0,2.09-1.03,2.09-2.3
				l0-14.25h5.31c0,0-1.35-4.53-1.44-4.83c-0.88-2.94-1.74-5.88-2.61-8.82c-0.52-1.77-1.05-3.53-1.6-5.29
				c0.09-0.02,2.17,6.9,3.27,10.34c0.78,2.44,5.22,1.71,4.41-0.87c0,0-4.21-13.27-4.21-13.27c-0.28-0.88-2.08-2.72-3.81-2.72h-7.59
				c-1.83,0-3.5,1.85-3.77,2.72l-4.21,13.27C885.65,548.46,886.48,549.71,887.42,550z"/>
		</g>
	</g>
	<g>
		<g>
			<g>
				
					<ellipse transform="matrix(0.9854 -0.1704 0.1704 0.9854 -85.6482 21.9081)" class="st9" cx="84.82" cy="509.98" rx="4.07" ry="4.07"/>
				<g>
					<path class="st9" d="M79.63,521.95h-0.02l0,11.65c0-0.03,0.01-0.06,0.01-0.1L79.63,521.95z"/>
					<path class="st9" d="M90.02,521.95v11.55c0,0.02,0.01,0.04,0.01,0.07L90.02,521.95L90.02,521.95z"/>
					<path class="st9" d="M84.92,535.71l0,18.94c0.37,1.44,1.43,2.62,2.74,2.62c1.3,0,2.37-1.17,2.37-2.62l0-18.94
						c0-0.03,0-0.06,0-0.08l-0.01-0.12h0.01v-1.94c0-0.02-0.01-0.04-0.01-0.07v-11.55h0.01v11.62c0.05,1.08,1.27,1.94,2.25,1.94
						c1,0,2.37-0.9,2.37-2.01v-11.47v-3.22c0-1.61-1.31-2.93-2.93-2.93H77.88c-1.61,0-2.93,1.31-2.93,2.93v14.7
						c0,1.11,1.37,2.01,2.37,2.01c0.97,0,2.22-0.85,2.3-1.91l0-11.65h0.02l0,11.55c0,0.03-0.01,0.06-0.01,0.1l0,2.03
						c0,0.03,0,0.05,0,0.08v18.94c0,1.44,1.06,2.62,2.37,2.62c1.3,0,2.37-1.17,2.83-2.62l0-18.94H84.92z"/>
				</g>
			</g>
			<g>
				
					<ellipse transform="matrix(0.9854 -0.1704 0.1704 0.9854 -85.6482 21.9081)" class="st5" cx="84.82" cy="509.98" rx="4.07" ry="4.07"/>
				<g>
					<path class="st5" d="M79.63,521.95h-0.02l0,11.65c0-0.03,0.01-0.06,0.01-0.1L79.63,521.95z"/>
					<path class="st5" d="M90.02,521.95v11.55c0,0.02,0.01,0.04,0.01,0.07L90.02,521.95L90.02,521.95z"/>
					<path class="st5" d="M84.92,535.71l0,18.94c0.37,1.44,1.43,2.62,2.74,2.62c1.3,0,2.37-1.17,2.37-2.62l0-18.94
						c0-0.03,0-0.06,0-0.08l-0.01-0.12h0.01v-1.94c0-0.02-0.01-0.04-0.01-0.07v-11.55h0.01v11.62c0.05,1.08,1.27,1.94,2.25,1.94
						c1,0,2.37-0.9,2.37-2.01v-11.47v-3.22c0-1.61-1.31-2.93-2.93-2.93H77.88c-1.61,0-2.93,1.31-2.93,2.93v14.7
						c0,1.11,1.37,2.01,2.37,2.01c0.97,0,2.22-0.85,2.3-1.91l0-11.65h0.02l0,11.55c0,0.03-0.01,0.06-0.01,0.1l0,2.03
						c0,0.03,0,0.05,0,0.08v18.94c0,1.44,1.06,2.62,2.37,2.62c1.3,0,2.37-1.17,2.83-2.62l0-18.94H84.92z"/>
				</g>
			</g>
		</g>
	</g>
	<g>
		<g>
			<path d="M1257.79,423.05c2.3,0,4.16-1.86,4.16-4.16s-1.86-4.16-4.16-4.16c-2.3,0-4.16,1.86-4.16,4.16
				S1255.49,423.05,1257.79,423.05z"/>
		</g>
		<g>
			<path class="st6" d="M1257.79,423.05c2.3,0,4.16-1.86,4.16-4.16s-1.86-4.16-4.16-4.16c-2.3,0-4.16,1.86-4.16,4.16
				S1255.49,423.05,1257.79,423.05z"/>
			<path class="st6" d="M1247.42,443c0.94,0.3,2.56-0.05,2.89-1.08c0,0,2.99-11.02,3.24-10.97l-5.65,18.95h5.34l0,14.25
				c0,1.26,0.94,2.3,2.09,2.3s2.09-1.03,2.46-2.3l0-14.25h0.03v14.25c0.28,1.26,1.22,2.3,2.36,2.3c1.15,0,2.09-1.03,2.09-2.3
				l0-14.25h5.31c0,0-1.35-4.53-1.44-4.83c-0.88-2.94-1.74-5.88-2.61-8.82c-0.52-1.77-1.05-3.53-1.6-5.29
				c0.09-0.02,2.17,6.9,3.27,10.34c0.78,2.44,5.22,1.71,4.41-0.87c0,0-4.21-13.27-4.21-13.27c-0.28-0.88-2.08-2.72-3.81-2.72h-7.59
				c-1.83,0-3.5,1.85-3.77,2.72l-4.21,13.27C1245.65,441.46,1246.48,442.71,1247.42,443z"/>
		</g>
		<g>
			<path class="st5" d="M1257.79,423.05c2.3,0,4.16-1.86,4.16-4.16s-1.86-4.16-4.16-4.16c-2.3,0-4.16,1.86-4.16,4.16
				S1255.49,423.05,1257.79,423.05z"/>
			<path class="st5" d="M1247.42,443c0.94,0.3,2.56-0.05,2.89-1.08c0,0,2.99-11.02,3.24-10.97l-5.65,18.95h5.34l0,14.25
				c0,1.26,0.94,2.3,2.09,2.3s2.09-1.03,2.46-2.3l0-14.25h0.03v14.25c0.28,1.26,1.22,2.3,2.36,2.3c1.15,0,2.09-1.03,2.09-2.3
				l0-14.25h5.31c0,0-1.35-4.53-1.44-4.83c-0.88-2.94-1.74-5.88-2.61-8.82c-0.52-1.77-1.05-3.53-1.6-5.29
				c0.09-0.02,2.17,6.9,3.27,10.34c0.78,2.44,5.22,1.71,4.41-0.87c0,0-4.21-13.27-4.21-13.27c-0.28-0.88-2.08-2.72-3.81-2.72h-7.59
				c-1.83,0-3.5,1.85-3.77,2.72l-4.21,13.27C1245.65,441.46,1246.48,442.71,1247.42,443z"/>
		</g>
	</g>
</g>
</svg>
